 <svg  version="1.0" xmlns="http://www.w3.org/2000/svg"  width="300.000000pt" height="217.000000pt" viewBox="0 0 300.000000 217.000000"  preserveAspectRatio="xMidYMid meet">  <g transform="translate(0.000000,217.000000) scale(0.100000,-0.100000)" fill="#2e2e2e" stroke="none"> <path d="M1227 1883 c-11 -3 -16 -10 -13 -20 3 -8 6 -21 6 -29 0 -11 7 -13 28 -8 37 9 45 18 37 43 -6 20 -20 24 -58 14z"/> <path d="M1427 1883 c-4 -3 -7 -16 -7 -29 0 -16 7 -23 27 -27 35 -7 43 -2 43 28 0 28 -44 48 -63 28z"/> <path d="M1149 1847 c-9 -7 -23 -27 -33 -44 -15 -31 -15 -39 4 -145 11 -62 22 -135 25 -161 9 -85 64 -156 140 -178 l45 -13 0 -51 c0 -87 54 -145 121 -130 32 7 76 54 85 91 8 31 22 31 30 0 3 -13 17 -34 30 -47 20 -19 27 -21 49 -11 14 6 33 28 42 47 l17 36 23 -50 c25 -58 59 -78 108 -64 52 15 69 61 73 193 l4 115 -25 3 -25 2 -4 -120 c-2 -94 -6 -123 -19 -136 -30 -30 -54 -9 -84 71 -35 97 -52 99 -91 10 -16 -36 -31 -65 -35 -65 -3 0 -17 28 -30 62 -35 89 -51 88 -95 -6 -28 -59 -42 -78 -62 -83 -37 -9 -62 26 -62 86 0 46 0 47 44 60 43 12 102 64 125 108 6 12 13 46 16 75 3 29 13 101 23 160 11 68 15 115 9 130 -11 30 -47 68 -64 68 -20 0 -15 -34 8 -54 18 -15 21 -26 16 -74 -8 -97 -36 -232 -56 -270 -39 -77 -108 -111 -182 -92 -87 24 -119 79 -153 265 -25 132 -23 169 9 181 18 7 20 44 3 44 -7 0 -20 -6 -29 -13z"/> <path d="M1825 1675 c-17 -16 -25 -35 -25 -60 0 -91 126 -117 160 -34 36 86 -70 160 -135 94z m97 -22 c22 -20 23 -51 1 -75 -33 -36 -93 -13 -93 37 0 49 55 72 92 38z"/> <path d="M1864 1625 c-4 -9 -2 -21 4 -27 15 -15 44 -1 40 19 -4 23 -36 29 -44 8z"/> <path d="M1828 1498 c-11 -28 4 -38 58 -38 51 0 54 1 54 25 0 24 -3 25 -54 25 -34 0 -56 -5 -58 -12z"/> <path d="M450 826 l0 -161 87 3 c110 5 153 26 184 90 38 77 13 164 -57 203 -19 11 -62 19 -121 22 l-93 4 0 -161z m182 83 c26 -14 48 -67 41 -101 -3 -15 -17 -39 -30 -53 -21 -20 -36 -25 -77 -25 l-51 0 2 97 c1 54 2 99 2 101 2 6 94 -9 113 -19z"/> <path d="M874 976 c-112 -49 -134 -188 -43 -270 81 -74 210 -53 259 43 70 138 -73 289 -216 227z m116 -61 c36 -19 50 -43 50 -90 0 -47 -24 -81 -65 -95 -44 -15 -80 -4 -110 32 -73 87 24 205 125 153z"/> <path d="M1150 826 l0 -164 33 2 32 2 -1 67 c0 37 3 67 7 67 5 0 30 -29 56 -64 43 -58 52 -64 92 -70 45 -6 64 -1 45 12 -15 10 -124 141 -124 149 0 4 27 39 60 80 33 40 60 75 60 78 0 3 -16 5 -35 5 -31 0 -40 -7 -91 -75 -31 -41 -60 -75 -64 -75 -5 0 -6 34 -3 75 l6 75 -37 0 -36 0 0 -164z"/> <path d="M1430 953 l0 -32 50 6 50 6 0 -135 0 -134 33 4 32 4 0 126 0 127 48 -2 c46 -1 47 -1 47 30 l0 32 -130 0 -130 0 0 -32z"/> <path d="M1815 974 c-44 -23 -66 -45 -81 -81 -42 -98 18 -209 124 -229 59 -11 104 4 150 52 40 42 42 47 42 104 0 72 -25 118 -81 150 -44 24 -112 26 -154 4z m136 -72 c26 -23 31 -35 31 -75 2 -77 -55 -121 -127 -97 -106 35 -75 198 37 200 16 0 40 -11 59 -28z"/> <path d="M2093 829 l1 -157 33 -4 33 -4 0 53 c0 29 4 53 8 53 5 0 27 -23 50 -51 39 -47 46 -52 87 -54 25 -1 45 -1 45 0 0 1 -22 26 -50 56 l-50 54 29 14 c32 15 61 59 61 93 0 34 -36 87 -62 92 -13 3 -60 7 -104 9 l-81 4 0 -158z m162 81 c21 -18 18 -57 -4 -70 -11 -5 -36 -10 -55 -10 l-36 0 0 51 0 52 40 -6 c23 -3 47 -11 55 -17z"/> <path d="M2380 963 c0 -13 0 -26 0 -30 0 -5 33 -8 73 -9 88 -1 95 -2 81 -12 -6 -4 -43 -47 -83 -96 -50 -64 -71 -98 -71 -118 l0 -28 125 0 125 0 0 30 0 30 -86 0 -85 0 35 43 c119 142 126 151 126 181 l0 31 -120 0 c-118 0 -120 0 -120 -22z"/> <path d="M930 566 c0 -26 4 -36 16 -36 11 0 14 8 12 32 -4 46 -28 49 -28 4z"/> <path d="M985 580 c-7 -23 10 -50 31 -50 20 0 34 32 23 53 -14 23 -46 21 -54 -3z"/> <path d="M1083 593 c-18 -7 -16 -52 3 -60 23 -8 47 20 39 46 -6 21 -18 24 -42 14z m27 -34 c0 -24 -23 -21 -28 4 -2 10 3 17 12 17 10 0 16 -9 16 -21z"/> <path d="M1340 585 c-6 -8 -10 -22 -8 -32 4 -23 48 -31 48 -9 0 9 -4 16 -10 16 -5 0 -10 -5 -10 -11 0 -5 -4 -7 -10 -4 -18 11 -11 35 11 35 11 0 17 5 14 10 -9 14 -21 12 -35 -5z"/> <path d="M1454 583 c-3 -10 -9 -25 -14 -33 -6 -13 -1 -16 25 -16 31 0 32 1 23 28 -13 36 -27 44 -34 21z"/> <path d="M1526 593 c-3 -4 -6 -20 -6 -36 l0 -30 20 23 c11 13 20 26 20 30 0 11 -27 20 -34 13z"/> <path d="M1587 594 c-4 -4 -7 -20 -7 -36 l0 -29 22 21 c20 18 20 22 7 35 -8 9 -18 12 -22 9z"/> <path d="M1647 593 c-11 -10 -8 -51 3 -58 17 -10 50 5 50 24 0 30 -35 53 -53 34z m33 -34 c0 -20 -15 -26 -25 -9 -9 15 3 43 15 35 5 -3 10 -15 10 -26z"/> <path d="M1980 565 c0 -28 4 -35 20 -35 11 0 20 5 20 10 0 6 -4 10 -9 10 -5 0 -8 11 -5 25 3 18 0 25 -11 25 -11 0 -15 -10 -15 -35z"/> <path d="M1151 560 c0 -23 2 -30 8 -21 6 9 11 10 15 2 4 -6 12 -11 18 -11 7 0 7 5 -1 14 -6 7 -8 22 -4 32 6 16 5 17 -9 6 -13 -10 -17 -10 -21 0 -3 7 -6 -3 -6 -22z"/> <path d="M1250 565 c0 -14 4 -25 9 -25 12 0 23 29 15 41 -10 18 -24 9 -24 -16z"/> <path d="M1293 583 c4 -3 2 -12 -4 -19 -11 -14 -4 -34 12 -34 5 0 9 14 9 30 0 17 -5 30 -12 30 -6 0 -8 -3 -5 -7z"/> <path d="M1750 559 c0 -18 4 -28 10 -24 6 4 8 10 5 15 -3 4 0 10 7 12 6 2 8 10 4 16 -13 22 -26 13 -26 -19z"/> <path d="M1828 560 c2 -16 8 -30 12 -30 4 0 10 14 12 30 4 23 1 30 -12 30 -13 0 -16 -7 -12 -30z"/> <path d="M1885 575 c-3 -8 -7 -22 -10 -30 -2 -8 0 -15 5 -15 6 0 10 8 10 18 1 15 2 15 15 -2 15 -20 15 -20 30 0 14 19 14 19 15 0 0 -11 3 -17 6 -13 9 8 -4 57 -15 57 -5 0 -12 -10 -16 -22 l-8 -23 -4 23 c-5 25 -21 29 -28 7z"/> <path d="M2035 565 c2 -30 15 -47 15 -19 1 18 1 18 14 2 19 -26 26 -22 25 15 0 26 -2 29 -9 12 -7 -18 -8 -19 -15 -2 -11 26 -31 21 -30 -8z"/> </g> </svg> 