<svg width="343" height="371" viewBox="0 0 343 371" fill="none" xmlns="http://www.w3.org/2000/svg">
<path d="M73.004 302.291C130.477 334.768 223.663 334.768 281.143 302.291C338.623 269.813 338.616 217.161 281.143 184.684C223.67 152.206 130.477 152.199 72.9972 184.684C15.5172 217.169 15.5241 269.813 73.004 302.291Z" fill="#FAFAFA"/>
<path d="M225.166 308.256C236.785 308.256 246.205 303.4 246.205 297.408C246.205 291.417 236.785 286.56 225.166 286.56C213.546 286.56 204.126 291.417 204.126 297.408C204.126 303.4 213.546 308.256 225.166 308.256Z" fill="#F0F0F0"/>
<path d="M60.6421 109.816V147.139C60.6421 148.363 61.4378 148.867 62.4257 148.252L142.537 98.2185C143.055 97.8521 143.487 97.359 143.797 96.779C144.106 96.199 144.286 95.5483 144.32 94.8795V57.5273C144.32 56.303 143.518 55.7984 142.537 56.4143L62.4257 106.447C61.9025 106.815 61.4678 107.313 61.1577 107.899C60.8475 108.484 60.6708 109.142 60.6421 109.816Z" fill="#F0F0F0"/>
<path d="M66.2194 109.23L90.2294 94.2414C91.3338 93.5514 92.2188 94.1079 92.2188 95.4806V121.577C92.1811 122.321 91.9813 123.045 91.6355 123.69C91.2898 124.335 90.8079 124.882 90.2294 125.287L66.2194 140.283C65.1218 140.965 64.23 140.409 64.23 139.036V112.955C64.2671 112.208 64.4667 111.482 64.8124 110.835C65.1581 110.187 65.6401 109.638 66.2194 109.23Z" fill="#FAFAFA"/>
<path d="M85.6606 107.263L78.5194 123.276L74.8836 121.005C74.5344 120.799 74.1249 120.747 73.741 120.86C73.3572 120.974 73.029 121.244 72.8256 121.614L64.23 137.648V139.051C64.23 140.423 65.1218 140.98 66.2194 140.297L90.2294 125.302C90.8068 124.895 91.2878 124.348 91.6334 123.703C91.979 123.059 92.1795 122.335 92.2188 121.592V112.413L87.4168 106.967C87.3095 106.804 87.1627 106.678 86.9927 106.6C86.8228 106.523 86.6363 106.499 86.4541 106.529C86.272 106.56 86.1013 106.645 85.9612 106.775C85.8211 106.904 85.717 107.074 85.6606 107.263Z" fill="#3E8989"/>
<path d="M67.8383 118.779C69.3219 117.733 70.5565 116.323 71.4421 114.663C72.3276 113.004 72.8392 111.143 72.9353 109.23C72.9353 107.62 72.4551 106.455 71.6662 105.831L66.2194 109.23C65.642 109.636 65.161 110.184 64.8154 110.828C64.4698 111.473 64.2693 112.196 64.23 112.94V119.15C65.1698 119.744 66.432 119.655 67.8383 118.779Z" fill="#3E8989"/>
<path d="M101.178 89.8414L137.255 67.3069C138.078 66.7949 138.743 67.1585 138.743 68.1231C138.707 68.6636 138.553 69.1873 138.295 69.6515C138.036 70.1156 137.68 70.5072 137.255 70.7943L101.178 93.3214C100.355 93.8334 99.6895 93.4698 99.6895 92.5052C99.7267 91.9659 99.8809 91.4437 100.14 90.981C100.398 90.5182 100.754 90.1278 101.178 89.8414Z" fill="#FAFAFA"/>
<path d="M101.178 97.5508L137.255 75.0162C138.078 74.5042 138.743 74.8678 138.743 75.8324C138.707 76.373 138.553 76.8966 138.295 77.3608C138.036 77.825 137.68 78.2165 137.255 78.5036L101.178 101.031C100.355 101.543 99.6895 101.179 99.6895 100.222C99.7257 99.6814 99.8794 99.1577 100.138 98.6936C100.397 98.2294 100.753 97.8378 101.178 97.5508Z" fill="#FAFAFA"/>
<path d="M101.178 105.26L137.255 82.733C138.078 82.221 138.743 82.5846 138.743 83.5418C138.707 84.0823 138.553 84.606 138.295 85.0702C138.036 85.5343 137.68 85.9259 137.255 86.213L101.178 108.74C100.355 109.259 99.6895 108.896 99.6895 107.931C99.7257 107.391 99.8794 106.867 100.138 106.403C100.397 105.939 100.753 105.547 101.178 105.26Z" fill="#FAFAFA"/>
<path d="M101.178 112.969L137.255 90.4424C138.078 89.9304 138.743 90.294 138.743 91.2586C138.706 91.7978 138.552 92.32 138.293 92.7828C138.035 93.2456 137.679 93.636 137.255 93.9223L101.178 116.494C100.355 117.006 99.6895 116.642 99.6895 115.678C99.7204 115.131 99.8716 114.6 100.131 114.129C100.389 113.658 100.749 113.26 101.178 112.969Z" fill="#FAFAFA"/>
<path d="M43.9038 227.245V172.478C43.9368 171.809 44.1155 171.157 44.4255 170.577C44.7355 169.997 45.1679 169.504 45.6874 169.139L106.275 131.297C107.256 130.681 108.059 131.178 108.059 132.41V187.177C108.024 187.846 107.845 188.496 107.535 189.076C107.225 189.656 106.793 190.15 106.275 190.516L45.6874 228.358C44.6996 228.974 43.9038 228.477 43.9038 227.245Z" fill="#F0F0F0"/>
<path d="M43.9038 224.507V227.245C43.9038 228.477 44.6996 228.974 45.6874 228.358L106.275 190.516C106.793 190.149 107.225 189.656 107.535 189.076C107.845 188.496 108.024 187.846 108.059 187.177V184.432L43.9038 224.507Z" fill="#3E8989"/>
<path d="M73.2167 174.837L79.3907 174.489C80.1453 174.444 80.3511 174.904 79.8503 175.527L72.7571 184.253C72.2563 184.869 71.8516 184.699 71.8516 183.882V176.403C71.8542 176.004 71.9965 175.621 72.2497 175.33C72.5029 175.04 72.8484 174.864 73.2167 174.837Z" fill="#3E8989"/>
<path d="M71.6251 189.039C70.8852 189.05 70.1561 188.848 69.5122 188.453C67.9893 187.496 67.1523 185.485 67.1523 182.859C67.1523 177.501 70.6441 170.986 74.9384 168.278C77.0582 166.95 79.0544 166.75 80.5911 167.699C82.1277 168.649 82.9578 170.667 82.9578 173.287C82.9578 178.651 79.4592 185.159 75.1717 187.867C74.1045 188.586 72.8817 188.99 71.6251 189.039ZM78.4851 167.618C77.3126 167.668 76.1726 168.049 75.1785 168.723C71.0145 171.32 67.6325 177.665 67.6325 182.859C67.6325 185.322 68.3871 187.155 69.7591 188.008C71.1311 188.861 72.9696 188.661 74.9384 187.429C79.1025 184.825 82.4844 178.525 82.4844 173.287C82.4844 170.823 81.7298 168.998 80.3578 168.137C79.7839 167.79 79.1359 167.611 78.4782 167.618H78.4851Z" fill="#3E8989"/>
<path d="M47.2449 121.584L43.4925 119.254C41.702 117.956 39.2118 118.008 36.461 119.729C30.973 123.142 26.5688 131.801 26.5688 139.073V140.728C26.5688 147.999 35.6103 155.894 35.6103 155.894L39.301 158.157C39.301 158.157 37.0852 155.419 37.339 154.855C39.7881 149.483 46.3394 134.302 46.3394 128.366V126.711C46.3533 125.514 46.2124 124.32 45.9209 123.165L46.3394 123.424L47.2449 121.584ZM36.4541 138.257C33.7101 139.963 31.508 138.576 31.508 135.17C32.9761 134.918 36.6736 128.091 36.4541 125.903C39.1981 124.196 41.3933 125.584 41.4002 128.989C41.3072 130.846 40.8109 132.652 39.9515 134.263C39.0922 135.873 37.894 137.241 36.4541 138.257Z" fill="#3E8989"/>
<g opacity="0.2">
<path d="M47.2449 121.584L43.4925 119.254C41.702 117.956 39.2118 118.008 36.461 119.729C30.973 123.142 26.5688 131.801 26.5688 139.073V140.728C26.5688 147.999 35.6103 155.894 35.6103 155.894L39.301 158.157C39.301 158.157 37.0852 155.419 37.339 154.855C39.7881 149.483 46.3394 134.302 46.3394 128.366V126.711C46.3533 125.514 46.2124 124.32 45.9209 123.165L46.3394 123.424L47.2449 121.584ZM36.4541 138.257C33.7101 139.963 31.508 138.576 31.508 135.17C32.9761 134.918 36.6736 128.091 36.4541 125.903C39.1981 124.196 41.3933 125.584 41.4002 128.989C41.3072 130.846 40.8109 132.652 39.9515 134.263C39.0922 135.873 37.894 137.241 36.4541 138.257Z" fill="black"/>
</g>
<path d="M47.2448 121.584C47.2038 121.553 47.1601 121.525 47.1144 121.502C45.3514 120.434 42.9984 120.582 40.4054 122.2C36.4952 124.649 33.1132 129.776 31.4874 135.17C30.8586 137.222 30.5255 139.367 30.4995 141.529V143.206C30.4995 148.808 36.3648 155.308 39.0608 158.001C39.1191 158.058 39.181 158.11 39.246 158.157C39.4045 158.262 39.5816 158.33 39.7659 158.357C39.9502 158.383 40.1376 158.368 40.3159 158.311C40.4943 158.254 40.6597 158.158 40.8016 158.028C40.9434 157.898 41.0585 157.737 41.1394 157.556C43.4718 152.362 50.2563 136.869 50.2563 130.844V129.19C50.2975 125.45 49.1244 122.808 47.2448 121.584ZM35.5485 138.709C35.4915 138.357 35.464 137.999 35.4662 137.641C35.5568 135.784 36.0513 133.976 36.9095 132.364C37.7678 130.752 38.9655 129.383 40.4054 128.366C40.693 128.187 40.9935 128.033 41.304 127.906C43.609 127.001 45.3514 128.433 45.3514 131.453C45.259 133.308 44.7629 135.114 43.9034 136.723C43.044 138.332 41.8454 139.699 40.4054 140.713C37.9838 142.241 35.9669 141.321 35.5485 138.709Z" fill="#3E8989"/>
<path d="M45.3518 131.46C45.2594 133.316 44.7633 135.122 43.9038 136.731C43.0443 138.34 41.8458 139.707 40.4057 140.72C37.9841 142.204 35.9673 141.321 35.5488 138.71C35.8632 138.59 36.1664 138.438 36.4543 138.257C37.8933 137.241 39.0905 135.872 39.9487 134.262C40.8069 132.652 41.3019 130.845 41.3935 128.989C41.3967 128.628 41.3668 128.268 41.3044 127.913C43.6093 127.008 45.3518 128.44 45.3518 131.46Z" fill="#3E8989"/>
<g opacity="0.2">
<path d="M45.3518 131.46C45.2594 133.316 44.7633 135.122 43.9038 136.731C43.0443 138.34 41.8458 139.707 40.4057 140.72C37.9841 142.204 35.9673 141.321 35.5488 138.71C35.8632 138.59 36.1664 138.438 36.4543 138.257C37.8933 137.241 39.0905 135.872 39.9487 134.262C40.8069 132.652 41.3019 130.845 41.3935 128.989C41.3967 128.628 41.3668 128.268 41.3044 127.913C43.6093 127.008 45.3518 128.44 45.3518 131.46Z" fill="black"/>
</g>
<path d="M117.43 223.587C117.43 223.587 119.906 206.521 114.404 191.844C108.903 177.167 101.487 176.262 97.6455 178.347C93.8039 180.432 96.2735 188.572 99.7035 194.04C104.272 201.216 111.818 216.664 111.571 230.539L117.43 223.587Z" fill="#3E8989"/>
<path opacity="0.2" d="M117.43 223.587C117.43 223.587 119.906 206.521 114.404 191.844C108.903 177.167 101.487 176.262 97.6455 178.347C93.8039 180.432 96.2735 188.572 99.7035 194.04C104.272 201.216 111.818 216.664 111.571 230.539L117.43 223.587Z" fill="black"/>
<path d="M114.96 224.67C114.899 224.668 114.838 224.653 114.782 224.625C114.726 224.598 114.676 224.558 114.634 224.509C114.592 224.46 114.56 224.402 114.54 224.339C114.519 224.277 114.511 224.21 114.514 224.143C115.42 200.778 104.629 183.333 99.9711 179.935C99.9202 179.898 99.8765 179.851 99.8426 179.795C99.8087 179.74 99.7851 179.678 99.7734 179.613C99.7616 179.548 99.7617 179.481 99.7739 179.416C99.786 179.351 99.8099 179.289 99.8442 179.234C99.8784 179.179 99.9223 179.132 99.9734 179.095C100.025 179.058 100.082 179.033 100.142 179.02C100.202 179.007 100.264 179.007 100.324 179.021C100.384 179.034 100.442 179.06 100.492 179.097C105.98 183.059 116.353 200.897 115.44 224.188C115.439 224.254 115.425 224.319 115.4 224.379C115.374 224.439 115.338 224.493 115.294 224.538C115.249 224.583 115.196 224.618 115.139 224.64C115.082 224.663 115.021 224.673 114.96 224.67Z" fill="white"/>
<path d="M116.456 243.851C115.516 241.298 113.087 238.449 106.852 235.407C100.616 232.365 95.9236 228.306 95.0592 225.368C94.7991 224.556 94.7651 223.68 94.9615 222.847C95.1578 222.015 95.5759 221.263 96.1637 220.686C96.1637 220.686 90.2847 219.944 89.5438 216.048C88.6177 211.136 93.7558 210.817 93.7558 210.817C93.7558 210.817 87.0125 200.548 85.222 195.977C83.4315 191.406 85.4964 191.132 89.8456 192.876C94.1949 194.619 102.482 203.397 103.765 206.076C103.765 206.076 106.008 203.108 108.423 205.059C110.837 207.011 110.954 212.85 109.527 214.957C110.489 214.764 111.483 214.876 112.387 215.28C113.292 215.684 114.069 216.363 114.624 217.235C117.08 220.715 117.889 229.419 117.889 229.419L116.456 243.851Z" fill="#3E8989"/>
<path d="M116.895 241.477C116.791 241.475 116.69 241.436 116.608 241.367C116.526 241.297 116.468 241.2 116.442 241.091C113.108 226.065 97.2821 202.084 87.4517 194.456C87.4017 194.417 87.3592 194.369 87.3266 194.312C87.2941 194.256 87.2721 194.194 87.2619 194.128C87.2517 194.063 87.2535 193.996 87.2672 193.931C87.281 193.866 87.3064 193.805 87.342 193.751C87.3775 193.697 87.4226 193.651 87.4746 193.616C87.5266 193.581 87.5846 193.557 87.6451 193.546C87.7056 193.535 87.7675 193.537 87.8273 193.552C87.8871 193.566 87.9437 193.594 87.9937 193.632C97.9475 201.357 113.972 225.642 117.354 240.853C117.381 240.984 117.36 241.121 117.294 241.235C117.229 241.348 117.125 241.43 117.005 241.462L116.895 241.477Z" fill="white"/>
<path d="M241.068 90.1752C240.986 90.1742 240.906 90.1512 240.834 90.1084L238.907 88.899C238.854 88.8658 238.807 88.8217 238.77 88.7691C238.732 88.7165 238.705 88.6564 238.689 88.5924C238.673 88.5283 238.669 88.4614 238.677 88.3957C238.685 88.3299 238.705 88.2664 238.735 88.2089C238.766 88.1514 238.807 88.101 238.855 88.0606C238.904 88.0202 238.959 87.9905 239.019 87.9733C239.078 87.956 239.14 87.9516 239.201 87.9602C239.261 87.9688 239.32 87.9903 239.373 88.0234L241.301 89.2329C241.354 89.2659 241.401 89.31 241.438 89.3626C241.476 89.4152 241.503 89.4753 241.519 89.5394C241.535 89.6035 241.539 89.6704 241.531 89.7362C241.523 89.802 241.503 89.8655 241.472 89.9229C241.431 89.9998 241.372 90.0635 241.301 90.1078C241.23 90.1521 241.15 90.1754 241.068 90.1752Z" fill="white"/>
<path d="M116.456 134.168V244.563C116.456 245.795 117.251 246.292 118.232 245.676L237.281 171.335C237.799 170.969 238.231 170.476 238.541 169.896C238.85 169.316 239.03 168.665 239.064 167.996V57.6015C239.064 56.3697 238.262 55.8726 237.281 56.4885L118.232 130.829C117.714 131.196 117.284 131.689 116.975 132.269C116.666 132.849 116.488 133.5 116.456 134.168Z" fill="#455A64"/>
<path d="M130.388 154.559C130.388 158.41 133.043 159.864 136.329 157.816L230.702 98.8789V84.959L136.329 143.889C133.043 145.944 130.388 150.715 130.388 154.559Z" fill="#F5F5F5"/>
<path d="M238.728 79.9653C242.007 77.9174 244.669 79.3717 244.669 83.2153C244.669 87.0588 242.007 91.8373 238.728 93.8852L230.736 98.8789V84.959L238.728 79.9653Z" fill="#3E8989"/>
<path d="M235.847 91.6963C235.505 91.7016 235.169 91.6067 234.873 91.4218C234.508 91.1579 234.216 90.7925 234.028 90.3642C233.84 89.9358 233.762 89.4603 233.803 88.988C233.852 87.8267 234.158 86.695 234.695 85.688C235.232 84.681 235.985 83.828 236.89 83.2004C237.235 82.8957 237.658 82.7119 238.102 82.6735C238.547 82.6352 238.991 82.7441 239.377 82.9857C239.763 83.2274 240.072 83.5903 240.262 84.0263C240.452 84.4623 240.515 84.9507 240.443 85.4264C240.392 86.5874 240.085 87.7183 239.548 88.7251C239.011 89.7318 238.26 90.5851 237.356 91.214C236.901 91.515 236.38 91.6813 235.847 91.6963ZM238.392 83.7198C238.024 83.7395 237.667 83.8622 237.356 84.076C236.598 84.6204 235.967 85.3472 235.513 86.1994C235.058 87.0516 234.792 88.0061 234.735 88.988C234.665 89.2835 234.686 89.596 234.795 89.8775C234.904 90.1589 235.095 90.3939 235.34 90.5464C235.584 90.6988 235.868 90.7603 236.148 90.7214C236.428 90.6825 236.689 90.5454 236.89 90.3311C237.648 89.7875 238.279 89.0609 238.734 88.2085C239.189 87.3562 239.454 86.4013 239.51 85.419C239.545 85.1248 239.508 84.8257 239.402 84.5521C239.296 84.2785 239.125 84.04 238.906 83.8608C238.75 83.7639 238.572 83.7152 238.392 83.7198Z" fill="white"/>
<path d="M240.1 110.432L148.862 167.373C148.342 167.737 147.909 168.23 147.599 168.81C147.289 169.391 147.11 170.042 147.079 170.712V201.082C147.079 202.314 147.874 202.811 148.862 202.195L240.1 145.232C240.62 144.866 241.052 144.374 241.362 143.793C241.672 143.213 241.851 142.562 241.884 141.893V111.545C241.85 110.313 241.054 109.816 240.1 110.432Z" fill="#3E8989"/>
<path opacity="0.2" d="M240.1 110.432L148.862 167.373C148.342 167.737 147.909 168.23 147.599 168.81C147.289 169.391 147.11 170.042 147.079 170.712V201.082C147.079 202.314 147.874 202.811 148.862 202.195L240.1 145.232C240.62 144.866 241.052 144.374 241.362 143.793C241.672 143.213 241.851 142.562 241.884 141.893V111.545C241.85 110.313 241.054 109.816 240.1 110.432Z" fill="white"/>
<path d="M182.03 151.724L198.563 141.395C199.386 140.884 200.051 141.247 200.051 142.212C200.014 142.751 199.86 143.273 199.601 143.736C199.343 144.199 198.987 144.589 198.563 144.875L182.03 155.204C181.207 155.716 180.542 155.353 180.542 154.388C180.579 153.849 180.733 153.326 180.992 152.864C181.25 152.401 181.606 152.01 182.03 151.724Z" fill="white"/>
<path d="M180.542 161.348C180.542 162.313 181.228 162.676 182.03 162.164L232.005 130.956C232.429 130.667 232.783 130.275 233.041 129.811C233.298 129.347 233.451 128.824 233.487 128.284C233.487 127.327 232.801 126.964 232.005 127.476L182.03 158.684C181.606 158.971 181.25 159.361 180.992 159.824C180.733 160.287 180.579 160.809 180.542 161.348Z" fill="white"/>
<path d="M180.542 168.308C180.542 169.273 181.228 169.636 182.03 169.124L232.005 137.916C232.429 137.627 232.783 137.235 233.041 136.771C233.298 136.307 233.451 135.784 233.487 135.244C233.487 134.287 232.801 133.924 232.005 134.436L182.03 165.644C181.606 165.931 181.25 166.321 180.992 166.784C180.733 167.246 180.579 167.769 180.542 168.308Z" fill="white"/>
<path d="M180.542 175.268C180.542 176.232 181.228 176.596 182.03 176.084L232.005 144.875C232.429 144.587 232.783 144.195 233.041 143.731C233.298 143.267 233.451 142.744 233.487 142.204C233.487 141.247 232.801 140.883 232.005 141.395L182.03 172.604C181.606 172.89 181.25 173.281 180.992 173.744C180.733 174.206 180.579 174.729 180.542 175.268Z" fill="white"/>
<path d="M151.675 169.109L173.188 155.672C174.176 155.063 174.971 155.56 174.971 156.785V180.18C174.938 180.849 174.759 181.5 174.449 182.08C174.139 182.66 173.707 183.153 173.188 183.519L151.675 196.949C150.694 197.565 149.891 197.068 149.891 195.843V172.448C149.924 171.779 150.103 171.128 150.413 170.547C150.723 169.967 151.155 169.474 151.675 169.109Z" fill="white"/>
<path d="M169.099 167.351L162.699 181.701L159.44 179.668C159.125 179.472 158.751 179.418 158.4 179.52C158.049 179.621 157.75 179.869 157.567 180.21L149.891 194.582V195.836C149.891 197.068 150.694 197.565 151.675 196.949L173.188 183.519C173.707 183.154 174.14 182.661 174.45 182.081C174.76 181.5 174.938 180.849 174.971 180.18V171.966L170.643 167.084C170.545 166.947 170.414 166.842 170.266 166.779C170.117 166.715 169.956 166.696 169.798 166.723C169.64 166.751 169.492 166.823 169.369 166.934C169.246 167.044 169.153 167.188 169.099 167.351Z" fill="#3E8989"/>
<path d="M153.122 177.672C154.452 176.733 155.559 175.469 156.353 173.981C157.147 172.494 157.605 170.824 157.691 169.109C157.737 168.54 157.657 167.967 157.459 167.437C157.261 166.907 156.951 166.435 156.552 166.06L151.675 169.109C151.155 169.474 150.723 169.967 150.413 170.547C150.103 171.128 149.924 171.779 149.891 172.448V178.013C150.721 178.533 151.86 178.458 153.122 177.672Z" fill="#3E8989"/>
<path d="M240.1 155.672L148.862 212.613C148.343 212.978 147.91 213.471 147.6 214.051C147.29 214.631 147.112 215.282 147.079 215.952V246.344C147.079 247.568 147.874 248.065 148.862 247.457L240.1 190.479C240.62 190.114 241.052 189.621 241.362 189.041C241.672 188.46 241.851 187.809 241.884 187.14V156.785C241.85 155.56 241.054 155.078 240.1 155.672Z" fill="#3E8989"/>
<path opacity="0.2" d="M240.1 155.672L148.862 212.613C148.343 212.978 147.91 213.471 147.6 214.051C147.29 214.631 147.112 215.282 147.079 215.952V246.344C147.079 247.568 147.874 248.065 148.862 247.457L240.1 190.479C240.62 190.114 241.052 189.621 241.362 189.041C241.672 188.46 241.851 187.809 241.884 187.14V156.785C241.85 155.56 241.054 155.078 240.1 155.672Z" fill="white"/>
<path d="M182.03 196.964L198.563 186.643C199.386 186.131 200.051 186.494 200.051 187.451C200.015 187.992 199.861 188.516 199.603 188.98C199.344 189.444 198.988 189.836 198.563 190.123L182.03 200.444C181.207 200.956 180.542 200.592 180.542 199.635C180.578 199.095 180.731 198.571 180.99 198.107C181.249 197.643 181.605 197.251 182.03 196.964Z" fill="white"/>
<path d="M180.542 206.595C180.542 207.552 181.228 207.916 182.03 207.404L232.005 176.195C232.428 175.908 232.782 175.517 233.039 175.054C233.297 174.591 233.45 174.07 233.487 173.532C233.487 172.567 232.801 172.203 232.005 172.715L182.03 203.924C181.605 204.211 181.249 204.602 180.99 205.067C180.731 205.531 180.578 206.054 180.542 206.595Z" fill="white"/>
<path d="M180.542 213.555C180.542 214.512 181.228 214.876 182.03 214.364L232.005 183.155C232.428 182.868 232.782 182.477 233.039 182.014C233.297 181.551 233.45 181.03 233.487 180.491C233.487 179.527 232.801 179.163 232.005 179.675L182.03 210.884C181.605 211.171 181.249 211.562 180.99 212.027C180.731 212.491 180.578 213.014 180.542 213.555Z" fill="white"/>
<path d="M180.542 220.515C180.542 221.472 181.228 221.836 182.03 221.324L232.005 190.115C232.428 189.828 232.782 189.437 233.039 188.974C233.297 188.511 233.45 187.99 233.487 187.451C233.487 186.487 232.801 186.123 232.005 186.635L182.03 217.844C181.605 218.131 181.249 218.522 180.99 218.987C180.731 219.451 180.578 219.974 180.542 220.515Z" fill="white"/>
<path d="M151.675 214.356L173.188 200.919C174.176 200.303 174.971 200.8 174.971 202.032V225.42C174.939 226.089 174.761 226.741 174.451 227.321C174.141 227.902 173.708 228.394 173.188 228.759L151.675 242.196C150.694 242.812 149.891 242.315 149.891 241.083V217.695C149.924 217.026 150.103 216.375 150.413 215.795C150.723 215.214 151.155 214.722 151.675 214.356Z" fill="white"/>
<path d="M169.099 212.598L162.699 226.948L159.44 224.908C159.284 224.811 159.112 224.748 158.933 224.723C158.754 224.698 158.573 224.712 158.399 224.763C158.225 224.814 158.062 224.901 157.919 225.02C157.777 225.139 157.657 225.288 157.567 225.457L149.891 239.829V241.083C149.891 242.315 150.694 242.812 151.675 242.196L173.188 228.759C173.707 228.395 174.139 227.904 174.45 227.325C174.76 226.746 174.938 226.095 174.971 225.427V217.206L170.643 212.331C170.546 212.192 170.416 212.085 170.267 212.02C170.118 211.955 169.955 211.935 169.797 211.962C169.638 211.99 169.489 212.064 169.366 212.176C169.243 212.287 169.151 212.433 169.099 212.598Z" fill="#3E8989"/>
<path d="M153.122 222.912C154.452 221.975 155.559 220.712 156.353 219.225C157.147 217.739 157.605 216.071 157.691 214.356C157.737 213.787 157.657 213.214 157.459 212.684C157.261 212.154 156.951 211.682 156.552 211.307L151.675 214.356C151.155 214.722 150.723 215.214 150.413 215.795C150.103 216.375 149.924 217.026 149.891 217.695V223.26C150.721 223.772 151.86 223.698 153.122 222.912Z" fill="#3E8989"/>
<path d="M239.064 62.328V57.6015C239.064 56.3697 238.262 55.8726 237.281 56.4885L118.239 130.829C117.72 131.195 117.287 131.687 116.977 132.268C116.667 132.848 116.489 133.499 116.456 134.168V138.902L239.064 62.328Z" fill="#3E8989"/>
<path d="M224.459 66.3052C224.075 66.5777 223.756 66.944 223.528 67.3745C223.299 67.805 223.167 68.2876 223.142 68.7834C223.142 69.6961 223.732 70.0671 224.459 69.6071C224.845 69.3383 225.167 68.974 225.397 68.5444C225.627 68.1148 225.759 67.6321 225.783 67.1362C225.783 66.2235 225.193 65.8525 224.459 66.3052Z" fill="#F5F5F5"/>
<path d="M229.707 63.07C229.322 63.3417 229.002 63.7077 228.772 64.1382C228.542 64.5687 228.409 65.0518 228.383 65.5483C228.383 66.4609 228.98 66.8245 229.707 66.3719C230.093 66.1015 230.415 65.7358 230.645 65.305C230.875 64.8742 231.007 64.3905 231.031 63.8936C231.031 62.9438 230.441 62.5803 229.707 63.07Z" fill="#F5F5F5"/>
<path d="M234.955 59.7607C234.569 60.0295 234.248 60.3938 234.018 60.8234C233.788 61.253 233.655 61.7357 233.631 62.2316C233.631 63.1443 234.221 63.5153 234.955 63.0626C235.339 62.7901 235.658 62.4238 235.887 61.9933C236.116 61.5628 236.248 61.0802 236.272 60.5844C236.272 59.6717 235.682 59.3007 234.955 59.7607Z" fill="#F5F5F5"/>
<path d="M240.964 292.511C241.172 293.082 241.315 293.677 241.39 294.285C241.583 294.913 241.628 295.584 241.52 296.236C241.058 297.069 240.323 297.683 239.462 297.958C238.849 298.11 238.213 298.123 237.596 297.995C236.978 297.868 236.392 297.602 235.874 297.216C234.619 296.407 233.679 295.42 231.895 294.878C230.623 294.582 229.425 293.992 228.383 293.149C227.395 292.296 226.078 289.922 227.965 289.373C229.851 288.824 233.96 290.76 237.699 290.938L240.964 292.511Z" fill="#263238"/>
<path d="M240.786 289.84C240.786 289.84 241.006 292.675 241.006 293.023C241.006 293.98 237.74 295.249 237.137 293.023L236.615 290.011L240.786 289.84Z" fill="#F28F8F"/>
<path d="M236.779 227.653C237.902 229.439 238.931 231.292 239.86 233.203C239.86 233.203 240.182 237.329 240.182 240.074C240.182 245.12 239.462 249.015 238.81 258.958C239.871 260.914 240.478 263.119 240.58 265.384C240.854 269.888 240.861 269.836 240.889 290.612C240.264 290.976 239.578 291.202 238.871 291.276C238.164 291.35 237.451 291.271 236.773 291.042L230.599 261.948L229.913 250.529L227.978 236.334L236.779 227.653Z" fill="#37474F"/>
<path d="M222.168 297.713C222.387 297.958 222.312 298.455 222.415 299.271C222.529 299.899 222.559 300.541 222.504 301.178C222.144 302.06 221.494 302.766 220.679 303.159C220.087 303.39 219.458 303.486 218.829 303.441C218.201 303.397 217.589 303.212 217.03 302.899C215.699 302.261 214.649 301.415 212.818 301.111C211.522 300.99 210.265 300.568 209.134 299.872C208.057 299.13 206.472 296.978 208.283 296.162C210.094 295.346 214.636 296.807 218.361 296.481L222.168 297.713Z" fill="#263238"/>
<path d="M223.025 294.151C223.025 294.151 222.339 297.386 222.154 298.106C221.742 299.835 218.196 299.924 218.196 297.928L218.436 293.327L223.025 294.151Z" fill="#F28F8F"/>
<path d="M228.774 228.536C230.551 232.313 232.266 235.644 232.321 239.666C232.451 248.177 229.186 257.548 227.985 263.699C228.343 265.926 228.444 268.191 228.287 270.444C228.047 273.019 222.621 296.414 222.621 296.414C222.621 296.414 219.602 297.097 218.319 295.62L219.842 250.573L220.254 237.492L228.774 228.536Z" fill="#37474F"/>
<path d="M226.332 205.467L227.45 212.167L233.048 211.722L231.875 204.132L226.332 205.467Z" fill="#FFA8A7"/>
<path d="M238.954 211.233C238.399 209.415 236.265 207.434 234.152 207.864C230.979 208.447 227.851 209.291 224.795 210.387C222.84 211.129 221.056 212.976 220.892 219.936L220.281 237.447C221.127 238.26 222.141 238.841 223.238 239.139C226.208 240.022 228.17 240.549 232.684 239.481C238.563 238.093 239.963 234.242 239.963 234.242C239.963 234.242 239.736 224.974 239.558 219.936C239.414 215.655 239.331 212.487 238.954 211.233Z" fill="#455A64"/>
<path d="M223.945 196.912L195.441 188.55C192.862 188.067 191.785 194.879 194.364 195.354L223.636 198.552L223.945 196.912Z" fill="#263238"/>
<path d="M215.747 211.04L209.923 211.233C209.923 211.233 210.801 201.861 211.343 200.629C211.885 199.398 213.181 199.145 214.471 198.752C215.761 198.359 215.754 197.691 215.754 197.691L214.595 197.565C213.579 197.454 213.175 196.081 213.614 195.153C213.826 194.723 214.169 194.04 214.787 194.226L216.323 194.679C216.347 193.945 216.178 193.22 215.836 192.586C215.322 191.97 214.979 192.163 213.95 191.777C213.188 191.488 211.631 190.976 210.376 191.533C209.12 192.089 208.167 194.641 207.844 196.445C207.518 198.53 206.989 200.571 206.267 202.536C205.148 205.875 203.523 212.731 203.351 215.477C203.276 216.746 203.385 217.503 204.689 217.836C205.992 218.17 215.582 218.193 215.582 218.193L215.747 211.04Z" fill="#FFA8A7"/>
<path d="M222.189 197.535C222.189 197.535 220.817 199.702 221.009 199.939C221.319 200.163 221.662 200.326 222.024 200.422L222.189 197.535Z" fill="#FFA8A7"/>
<path d="M226.325 190.694C225.021 191.436 222.771 192.72 222.147 197.884C221.509 203.182 222.353 204.888 223.011 205.593C223.464 206.068 225.893 206.098 227.127 205.697C228.65 205.208 232.087 203.79 233.658 201.067C235.504 197.862 235.915 193.573 233.837 191.866C232.779 190.999 231.535 190.436 230.221 190.231C228.907 190.026 227.566 190.185 226.325 190.694Z" fill="#FFA8A7"/>
<path d="M230.16 254.632L233.13 245.55C235.433 244.667 237.495 243.178 239.133 241.217C239.133 241.217 238.447 243.806 233.754 246.463L230.496 255.055V259.834L230.16 254.632Z" fill="#263238"/>
<path d="M221.88 192.438C222.305 193.707 223.025 196.823 226.03 198.121C226.03 198.121 226.462 196.14 227.999 196.348C229.536 196.556 229.803 198.685 228.856 200.006C227.91 201.327 226.991 200.852 226.991 200.852C226.991 200.852 226.785 203.694 228.541 204.985C229.195 205.402 229.929 205.649 230.686 205.707C231.443 205.765 232.202 205.632 232.904 205.319C233.912 204.822 235.346 202.202 236.183 200.051C237.953 195.51 238.207 191.889 235.497 190.716C235.161 188.653 234.303 187.874 232.575 187.489C228.856 186.665 226.044 189.306 222.923 188.839C221.324 188.594 221.386 190.983 221.88 192.438Z" fill="#263238"/>
<path d="M235.586 191.436L237.342 190.256C237.189 190.025 236.96 189.865 236.702 189.809C236.445 189.754 236.177 189.806 235.953 189.956C235.73 190.106 235.567 190.343 235.499 190.618C235.431 190.893 235.462 191.185 235.586 191.436Z" fill="#263238"/>
<path d="M214.444 210.913C214.444 210.913 222.641 210.401 224.734 210.387C226.826 210.372 229.049 214.238 227.745 216.872C226.881 218.601 224.185 219.194 220.789 219.372C217.393 219.55 213.97 219.55 213.97 219.55C213.97 219.55 210.918 215.788 214.444 210.913Z" fill="#455A64"/>
<path d="M220.892 219.372C220.892 219.372 226.085 219.298 227.786 216.872C227.786 216.872 227.388 218.356 225.371 219.268C223.926 219.869 222.403 220.225 220.857 220.322L220.892 219.372Z" fill="#37474F"/>
<path d="M195.441 188.55C192.862 188.067 191.785 194.879 194.364 195.354L198.48 195.799C196.806 195.613 197.966 189.284 199.242 189.655L195.441 188.55Z" fill="#455A64"/>
<path d="M299.247 186.732C299.248 188.113 298.863 189.462 298.144 190.604C297.425 191.745 296.405 192.626 295.216 193.13C294.027 193.635 292.725 193.74 291.48 193.433C290.236 193.125 289.105 192.419 288.237 191.406L287.818 190.857C286.842 189.449 286.403 187.689 286.591 185.94C286.779 184.192 287.581 182.588 288.831 181.46C290.08 180.332 291.682 179.766 293.307 179.878C294.931 179.991 296.453 180.773 297.56 182.065L297.992 182.628C298.807 183.815 299.247 185.254 299.247 186.732Z" fill="#455A64"/>
<path d="M299.247 186.732C299.248 188.113 298.863 189.462 298.144 190.604C297.425 191.745 296.405 192.626 295.216 193.13C294.027 193.635 292.725 193.74 291.48 193.433C290.235 193.125 289.105 192.419 288.237 191.406L287.818 190.857L261.366 156.302L272.514 149.342L297.56 182.05L297.992 182.614C298.809 183.804 299.25 185.249 299.247 186.732Z" fill="#455A64"/>
<path d="M277.364 177.197C278.474 178.457 279.986 179.214 281.593 179.315C283.201 179.416 284.783 178.853 286.021 177.74C287.259 176.627 288.061 175.047 288.263 173.319C288.465 171.592 288.054 169.846 287.112 168.434L283.839 164.167C284.817 165.577 285.258 167.338 285.069 169.088C284.88 170.839 284.077 172.443 282.826 173.571C281.574 174.699 279.97 175.264 278.344 175.149C276.719 175.034 275.196 174.248 274.091 172.953L277.364 177.197Z" fill="#3E8989"/>
<path d="M272.088 95.0205C274.085 95.2609 276.016 95.9401 277.762 97.0165L269.715 91.956C264.316 87.9418 256.544 88.1793 247.907 93.5662C231.601 103.754 218.375 128.529 218.375 148.905C218.375 158.914 221.523 166.067 226.716 169.465L226.826 169.54L235.415 174.889C233.892 173.817 232.564 172.452 231.498 170.86C233.614 171.111 235.754 170.978 237.829 170.467C238.584 170.289 239.346 170.074 240.121 169.807C240.019 169.774 239.921 169.731 239.826 169.681C239.413 169.471 239.018 169.223 238.646 168.939C237.971 168.43 237.369 167.814 236.862 167.113C236.169 166.153 235.605 165.091 235.188 163.96C234.629 164.047 234.066 164.092 233.501 164.093C232.166 164.122 230.841 163.836 229.618 163.255C229.332 163.113 229.055 162.952 228.788 162.773C228.548 162.609 228.308 162.416 228.102 162.223C227.606 159.712 227.364 157.149 227.382 154.581C227.382 134.213 240.608 109.43 256.928 99.2425C259.011 97.9278 261.219 96.8581 263.513 96.0519C264.132 96.3251 264.713 96.687 265.242 97.1278C265.802 97.5926 266.307 98.131 266.744 98.7305C267.44 99.6928 268.006 100.757 268.425 101.891C268.986 101.806 269.553 101.764 270.12 101.765C271.671 101.72 273.205 102.122 274.565 102.93C274.909 103.133 275.237 103.366 275.546 103.628C275.422 103.034 275.292 102.448 275.134 101.891C274.514 99.4195 273.482 97.0909 272.088 95.0205Z" fill="#263238"/>
<path d="M277.762 97.0165L277.295 96.742C275.674 95.8233 273.908 95.2395 272.088 95.0205C270.136 94.785 268.161 94.8827 266.237 95.3099C265.31 95.5 264.394 95.7477 263.493 96.0519C261.199 96.8581 258.991 97.9278 256.907 99.2425C240.587 109.43 227.361 134.213 227.361 154.581C227.344 157.149 227.585 159.712 228.082 162.223C228.171 162.676 228.274 163.106 228.377 163.537C228.988 166.163 230.049 168.642 231.505 170.845C232.155 171.815 232.903 172.704 233.734 173.494C234.264 173.999 234.829 174.46 235.422 174.875C240.807 178.636 248.456 178.31 256.894 173.027C273.213 162.839 286.44 138.064 286.44 117.689C286.433 107.501 283.119 100.341 277.762 97.0165ZM274.537 102.953C274.882 103.155 275.21 103.389 275.518 103.65C276.036 104.104 276.507 104.617 276.925 105.179C278.983 107.968 280.073 112.309 280.073 117.711C280.073 135.519 268 158.165 253.71 167.091C250.109 169.317 246.645 170.534 243.702 170.534C242.474 170.549 241.256 170.297 240.121 169.792C240.019 169.759 239.921 169.717 239.826 169.666C239.413 169.457 239.018 169.208 238.646 168.924C238.183 168.572 237.755 168.169 237.37 167.722C237.198 167.529 237.034 167.314 236.869 167.098C236.176 166.138 235.612 165.077 235.195 163.945C234.15 160.951 233.652 157.766 233.727 154.566C233.727 154.329 233.727 154.099 233.727 153.824C234.029 136.09 245.972 113.956 260.077 105.156C260.399 104.956 260.728 104.756 261.058 104.57C263.332 103.196 265.816 102.274 268.391 101.847C268.952 101.762 269.518 101.72 270.085 101.721C271.306 101.709 272.516 101.962 273.646 102.463C273.955 102.596 274.253 102.757 274.537 102.945V102.953Z" fill="#455A64"/>
<path d="M280.073 117.703C280.073 135.511 268 158.157 253.71 167.084C252.843 167.629 251.95 168.125 251.035 168.568C248.749 169.76 246.258 170.423 243.722 170.512C242.495 170.527 241.277 170.275 240.141 169.77C240.04 169.737 239.941 169.694 239.846 169.643C239.433 169.434 239.039 169.186 238.666 168.901C237.991 168.392 237.39 167.777 236.883 167.076C236.704 166.816 236.519 166.564 236.354 166.275C236.677 166.275 237.04 166.327 237.356 166.327C240.299 166.327 243.763 165.132 247.365 162.884C261.634 154.01 273.714 131.393 273.714 113.526C273.714 108.621 272.815 104.622 271.107 101.81C272.313 101.895 273.485 102.273 274.537 102.915C274.881 103.118 275.21 103.352 275.518 103.613C276.036 104.067 276.507 104.58 276.925 105.141C278.736 107.597 279.799 111.248 280.018 115.767C280.053 116.42 280.073 117.058 280.073 117.703Z" fill="#37474F"/>
<path opacity="0.6" d="M277.316 115.648C277.316 133.456 265.242 156.102 250.953 165.028C247.351 167.254 243.894 168.471 240.944 168.471C239.719 168.487 238.503 168.234 237.37 167.729C237.198 167.536 237.034 167.321 236.869 167.106C236.176 166.146 235.612 165.084 235.195 163.952C234.15 160.958 233.652 157.773 233.727 154.573C233.727 154.336 233.727 154.106 233.727 153.831C234.029 136.098 245.972 113.964 260.076 105.164C260.399 104.963 260.728 104.763 261.057 104.577C263.332 103.203 265.816 102.281 268.391 101.854C268.952 101.769 269.518 101.727 270.085 101.728C271.306 101.717 272.516 101.969 273.646 102.47C273.831 102.67 274.002 102.886 274.167 103.101C276.225 105.906 277.316 110.246 277.316 115.648Z" fill="white"/>
</svg>
